# xmcd CD database file
#
# Track frame offsets:
#	150
#	18265
#	30052
#	37765
#	43925
#	55330
#	63435
#	75335
#	90682
#	96705
#	102357
#	121967
#	135885
#	146932
#	148627
#	159245
#	169782
#	185840
#	197845
#	207992
#
# Disc length: 2913 seconds
#
# Revision: 1
# Processed by: cddbd v1.5.2PL0 Copyright (c) Steve Scherf et al.
# Submitted via: CDex 1.51
#
DISCID=120b5f14
DTITLE=Ζουγανέλης Γιάννης - Παραμυθοτράγουδα
DYEAR=1996
DGENRE=Country
TTITLE0=Το καρότο και η αγγινάρα (Μιχάλης ’νθης)
TTITLE1=Το φεγγαράκι (Τέλος ’γρας)
TTITLE2=Θάμα (Γεώργιος Δροσίνης)
TTITLE3=Το άλογο (Φρόσω Χατόγλου)
TTITLE4=Κοριτσάκι μου (Γιάννης Ρίτσος)
TTITLE5=Τέσσερις θειές σου κερασιές (Γιάννης Ρίτσος)
TTITLE6=Ο παπαγάλος (Ζαχαρίας Παπαντωνίου)
TTITLE7=Το θαλασσί μαντήλι (Νικηφόρος Βρεττάκος)
TTITLE8=Ο ποντικός και η γατούλα (Θοδωρής Γκόνης)
TTITLE9=Η αλεπού καλόγρια (Γεώργιος Δροσίνης)
TTITLE10=Τα παιχνίδια (Μιχάλης ’νθης)
TTITLE11=Το παιδί με τη σάλπιγγα (Νικηφόρος Βρεττάκος)
TTITLE12=Βόλτα παω με το σκύλο (Θοδωρής Γκόνης)
TTITLE13=Γαλήνη (Διονύσιος Σολωμός)
TTITLE14=Το ποταμάκι (Ζαχαρίας Παπαντωνίου)
TTITLE15=Το πιο μεγάλο (Βασίλης Ρώτας)
TTITLE16=Οι ποντικοί (Ζαχαρίας Παπαντωνίου)
TTITLE17=Πες μου ένα παραμύθι (Θοδωρής Γκόνης)
TTITLE18=Ο τζίτζικας (Ζαχαρίας Παπαντωνίου)
TTITLE19=Παραμυθάκι μου καλό (Θοδωρής Γκόνης)
EXTD=YEAR: 1996
EXTT0=
EXTT1=
EXTT2=
EXTT3=
EXTT4=
EXTT5=
EXTT6=
EXTT7=
EXTT8=
EXTT9=
EXTT10=
EXTT11=
EXTT12=
EXTT13=
EXTT14=
EXTT15=
EXTT16=
EXTT17=
EXTT18=
EXTT19=
PLAYORDER=
